# AST/ASF file generated using VICON BodyLanguage
# -----------------------------------------------
:version 1.10
:name VICON
:units
  mass 1.0
  length 0.45
  angle deg
:documentation
   .ast/.asf automatically generated from VICON data using
   VICON BodyBuilder and BodyLanguage model FoxedUp or BRILLIANT.MOD
:root
   order TX TY TZ RX RY RZ
   axis XYZ
   position 0 0 0  
   orientation 0 0 0 
:bonedata
  begin
     id 1 
     name lhipjoint
     direction 0.710087 -0.641647 0.289942 
     length 2.79038 
     axis 0 0 0  XYZ
  end
  begin
     id 2 
     name lfemur
     direction 0.34202 -0.939693 0  
     length 7.2706  
     axis 0 0 20  XYZ
    dof rx ry rz
    limits (-160.0 20.0)
           (-70.0 70.0)
           (-60.0 70.0)
  end
  begin
     id 3 
     name ltibia
     direction 0.34202 -0.939693 0   
     length 7.86328   
     axis 0 0 20   XYZ
    dof rx
    limits (-10.0 170.0)
  end
  begin
     id 4 
     name lfoot
     direction 0.0541246 -0.148706 0.987399   
     length 2.37542   
     axis -90 7.62852e-016 20   XYZ
    dof rx rz
    limits (-45.0 90.0)
           (-70.0 20.0)
  end
  begin
     id 5 
     name ltoes
     direction 1.53554e-011 -4.21866e-011 1   
     length 1.19593   
     axis -90 7.62852e-016 20   XYZ
    dof rx
    limits (-90.0 20.0)
  end
  begin
     id 6 
     name rhipjoint
     direction -0.675762 -0.671724 0.303533   
     length 2.66544  
     axis 0 0 0  XYZ 
  end
  begin
     id 7 
     name rfemur
     direction -0.34202 -0.939693 0   
     length 8.11844   
     axis 0 0 -20   XYZ
    dof rx ry rz
    limits (-160.0 20.0)
           (-70.0 70.0)
           (-70.0 60.0)
  end
  begin
     id 8 
     name rtibia
     direction -0.34202 -0.939693 0   
     length 7.97082   
     axis 0 0 -20   XYZ
    dof rx
    limits (-10.0 170.0)
 end
 begin
     id 9 
     name rfoot
     direction -0.0726228 -0.199474 0.977208   
     length 2.19677  
     axis -90 -7.62852e-016 -20   XYZ
    dof rx rz
    limits (-45.0 90.0)
           (-20.0 70.0)
  end
  begin
     id 10 
     name rtoes
     direction -1.53508e-011 -4.21913e-011 1   
     length 1.10438   
     axis -90 -7.62852e-016 -20   XYZ
    dof rx
    limits (-90.0 20.0)
  end
  begin
     id 11 
     name lowerback
     direction -0.00404436 0.999673 -0.0252643   
     length 2.03972   
     axis 0 0 0   XYZ
    dof rx ry rz
    limits (-20.0 45.0)
           (-30.0 30.0)
           (-30.0 30.0)
  end
  begin
     id 12 
     name upperback
     direction 0.00744643 0.999969 0.00242763   
     length 2.04273   
     axis 0 0 0   XYZ
    dof rx ry rz
    limits (-20.0 45.0)
           (-30.0 30.0)
           (-30.0 30.0)
  end
  begin
     id 13 
     name thorax
     direction 0.00846113 0.999862 0.0143204   
     length 2.03752   
     axis 0 0 0   XYZ
    dof rx ry rz
    limits (-20.0 45.0)
           (-30.0 30.0)
           (-30.0 30.0)
  end
  begin
     id 14 
     name lowerneck
     direction 0.0328213 0.990857 0.130862   
     length 1.37497   
     axis 0 0 0   XYZ
    dof rx ry rz
    limits (-20.0 45.0)
           (-30.0 30.0)
           (-30.0 30.0)
  end
  begin
     id 15 
     name upperneck
     direction -0.0302832 0.999496 0.00956452   
     length 1.35926   
     axis 0 0 0   XYZ
    dof rx ry rz
    limits (-20.0 45.0)
           (-30.0 30.0)
           (-30.0 30.0)
  end
  begin
     id 16
     name head
     direction -0.0130455 0.999856 -0.0108809  
     length 1.44454  
     axis 0 0 0   XYZ
    dof rx ry rz
    limits (-20.0 45.0)
           (-30.0 30.0)
           (-30.0 30.0)
  end
  begin
     id 17 
     name lclavicle
     direction 0.952957 0.278766 0.119006  
     length 3.10112  
     axis 0 0 0   XYZ
    dof ry rz
    limits (-20.0 10.0)
           (0.0 20.0)
  end
  begin
     id 18 
     name lhumerus
     direction 1 -4.48972e-011 -1.63238e-028   
     length 5.82845   
     axis -180 -30 -90   XYZ
    dof rx ry rz
    limits (-60.0 90.0)
           (-90.0 90.0)
           (-90.0 90.0)
  end
  begin
     id 19
     name lradius
     direction 1 -4.48959e-011 1.45401e-026   
     length 3.49691   
     axis -180 -30 -90   XYZ
    dof rx
    limits (-10.0 170.0)
  end
  begin
     id 20
     name lwrist
     direction 1 -4.48945e-011 2.98015e-026   
     length 1.74845   
     axis -1.7599e-014 90 90   XYZ
    dof ry
    limits (-180.0 0.0)
 end
  begin
     id 21 
     name lhand
     direction 1 -4.4902e-011 5.9603e-026   
     length 0.674998   
     axis -3.80318e-014 90 90   XYZ
    dof rx rz
    limits (-90.0 90.0)
           (-45.0 45.0)
  end
  begin
     id 22 
     name lfingers
     direction 1 -4.48979e-011 1.19206e-025   
     length 0.544201   
     axis -7.60636e-014 90 90   XYZ
    dof rx
    limits (0.0 90.0)
  end
  begin
     id 23
     name lthumb
     direction 0.707107 -6.34941e-011 0.707107   
     length 0.781367   
     axis -90 45 2.85299e-015   XYZ
    dof rx rz
    limits (-45.0 45.0)
           (-45.0 45.0)
  end
  begin
     id 24 
     name rclavicle
     direction -0.967632 0.241887 0.0719654   
     length 3.53012  
     axis 0 0 0   XYZ 
    dof ry rz
    limits (-10.0 20.0)
           (-20.0 0.0)
  end
  begin
     id 25 
     name rhumerus
     direction -1 -4.4897e-011 6.87619e-028  
     length 5.45859   
     axis -180 30 90   XYZ
    dof rx ry rz
    limits (-90.0 60.0)
           (-90.0 90.0)
           (-90.0 90.0)
  end
  begin
     id 26 
     name rradius
     direction -1 -4.48967e-011 1.68055e-026   
     length 3.58491   
     axis -180 30 90   XYZ
    dof rx
    limits (-10.0 170.0)
  end
  begin
     id 27 
     name rwrist
     direction -1 -4.48976e-011 2.98015e-026   
     length 1.79245   
     axis -1.7599e-014 -90 -90   XYZ
    dof ry
    limits (-180.0 0.0)
  end
  begin
     id 28
     name rhand
     direction -1 -4.48996e-011 5.9603e-026   
     length 0.683735   
     axis -3.80318e-014 -90 -90   XYZ
    dof rx rz
    limits (-90.0 90.0)
           (-45.0 45.0)
  end
  begin
     id 29
     name rfingers
     direction -1 -4.48924e-011 1.19206e-025   
     length 0.551245   
     axis -7.60636e-014 -90 -90   XYZ
    dof rx
    limits (0.0 90.0)
  end
  begin
     id 30
     name rthumb
     direction -0.707107 -6.3492e-011 0.707107   
     length 0.791481   
     axis -90 -45 -2.85299e-015   XYZ
    dof rx rz
    limits (-45.0 45.0)
           (-45.0 45.0)
  end
:hierarchy
  begin
    root lhipjoint rhipjoint lowerback
    lhipjoint lfemur
    lfemur ltibia
    ltibia lfoot
    lfoot ltoes
    rhipjoint rfemur
    rfemur rtibia
    rtibia rfoot
    rfoot rtoes
    lowerback upperback
    upperback thorax
    thorax lowerneck lclavicle rclavicle
    lowerneck upperneck
    upperneck head
    lclavicle lhumerus
    lhumerus lradius
    lradius lwrist
    lwrist lhand lthumb
    lhand lfingers
    rclavicle rhumerus
    rhumerus rradius
    rradius rwrist
    rwrist rhand rthumb
    rhand rfingers
  end

#!OML:ASF F:\VICON\USERDATA\INSTALL\rory3\rory3.ASF
:FULLY-SPECIFIED
:DEGREES
884
root 13.8271 16.9443 -37.6061 -296.431 -98.9888 285.216
lowerback 13.2181 -1.1553 3.67423
upperback 0.923186 -0.822728 5.55434
thorax -6.41937 -0.513612 3.98545
lowerneck 3.01101 19.9574 12.9924
upperneck -5.00894 26.9734 -11.8912
head 1.30444 13.4431 -4.54415
rclavicle 1.88845e-015 3.18055e-015
rhumerus 3.8992 -50.6833 -49.7579
rradius 127.877
rwrist -55.3659
rhand -29.8575 74.81
rfingers 7.12502
rthumb -3.17985 44.854
lclavicle 1.88845e-015 3.18055e-015
lhumerus -18.2766 12.8692 19.628
lradius 90.2142
lwrist -8.92205
lhand 194.162 82.7281
lfingers 7.12502
lthumb -140.938 -662.774
rfemur -10.7843 10.3308 2.04143
rtibia 64.923
rfoot -21.1776 13.5883
rtoes -15.4532
lfemur 5.16673 7.80122 -17.349
ltibia 33.2532
lfoot -16.5578 3.10296
ltoes -14.3466
885
root 13.8213 16.8991 -37.6532 -292.857 -98.6222 281.847
lowerback 12.863 -1.36904 4.21091
upperback 0.837223 -1.05004 5.55031
thorax -6.31278 -0.640079 3.70881
lowerneck 2.9327 20.0205 12.6526
upperneck -5.51021 26.9901 -11.4698
head 1.06239 13.4381 -4.43729
rclavicle 1.80894e-014 -2.8625e-014
rhumerus 6.12454 -51.6895 -51.7745
rradius 128.513
rwrist -55.6718
rhand -30.6621 76.1998
rfingers 7.12502
rthumb -3.9568 46.2568
lclavicle 1.80894e-014 -2.8625e-014
lhumerus -19.1717 11.2072 20.1994
lradius 88.4268
lwrist -7.51832
lhand 191.721 80.9712
lfingers 7.12502
lthumb -143.243 -665.156
rfemur -10.6791 10.1086 2.67996
rtibia 65.1776
rfoot -22.9387 12.4328
rtoes -18.5261
lfemur 4.21492 7.92085 -16.772
ltibia 34.3371
lfoot -16.565 2.46941
ltoes -17.0349
886
root 13.8102 16.8443 -37.7132 -287.462 -99.1948 276.703
lowerback 12.3721 -1.48212 3.73746
upperback 0.767541 -1.297 5.23751
thorax -6.10075 -0.742556 3.66576
lowerneck 2.2958 20.1245 12.7461
upperneck -5.24321 27.063 -10.8943
head 1.17063 13.4408 -4.21263
rclavicle -2.04748e-014 3.49861e-014
rhumerus 8.90247 -53.0792 -54.3847
rradius 129.079
rwrist -57.0035
rhand -30.9631 77.2876
rfingers 7.12502
rthumb -4.24746 47.3502
lclavicle -2.04748e-014 3.49861e-014
lhumerus -19.8952 9.61043 20.685
lradius 86.1272
lwrist -6.1598
lhand 190.205 78.9666
lfingers 7.12502
lthumb -144.68 -667.514
rfemur -10.571 9.77695 2.23075
rtibia 65.3393
rfoot -24.7834 11.5336
rtoes -21.4669
lfemur 3.18688 7.91663 -17.2611
ltibia 35.457
lfoot -16.5702 1.81729
ltoes -18.647
887
root 13.7898 16.7798 -37.7723 -282.662 -100.367 271.909
lowerback 11.8817 -1.53504 2.83894
upperback 0.809292 -1.52525 4.77368
thorax -5.76269 -0.825984 3.69275
lowerneck 1.86832 20.2147 12.6818
upperneck -5.24169 27.1165 -10.3039
head 1.14372 13.4412 -4.01452
rclavicle 1.59028e-014 -9.54166e-015
rhumerus 12.3326 -54.5874 -57.3253
rradius 129.342
rwrist -58.8227
rhand -30.9873 78.3193
rfingers 7.12502
rthumb -4.27088 48.3823
lclavicle 1.59028e-014 -9.54166e-015
lhumerus -20.4005 8.17675 21.4248
lradius 83.1207
lwrist -4.08279
lhand 187.327 76.6613
lfingers 7.12502
lthumb -147.413 -670.425
rfemur -10.1393 9.29036 1.0856
rtibia 65.2685
rfoot -26.5866 10.7372
rtoes -25.0757
lfemur 2.51406 7.71759 -18.3738
ltibia 36.613
lfoot -16.7474 0.887027
ltoes -17.0166
888
root 13.7742 16.7412 -37.821 -281.34 -100.479 270.255
lowerback 11.849 -1.58169 3.15181
upperback 1.02719 -1.56946 4.6845
thorax -5.52242 -0.858817 3.41912
lowerneck 1.87625 20.2322 12.5098
upperneck -6.01834 27.0822 -10.2464
head 0.874808 13.4088 -4.04395
rclavicle 1.26228e-014 4.45278e-014
rhumerus 16.7373 -55.7815 -60.888
rradius 129.283
rwrist -60.2861
rhand -31.4187 79.1221
rfingers 7.12502
rthumb -4.68747 49.194
lclavicle 1.26228e-014 4.45278e-014
lhumerus -20.9752 6.91991 22.3912
lradius 79.8437
lwrist -1.36862
lhand 184.354 74.4025
lfingers 7.12502
lthumb -150.246 -673.229
rfemur -9.14134 9.57133 1.218
rtibia 65.1841
rfoot -27.6163 12.9503
rtoes -14.1625
lfemur 2.34206 7.65501 -18.1293
ltibia 37.7354
lfoot -16.8386 -0.194732
ltoes -14.8418
